<svg width="411" height="367" viewBox="0 0 411 367" fill="none" xmlns="http://www.w3.org/2000/svg">
<path d="M4.61426 319.867V205.061L105.053 162.025L205.493 205.093V319.867L105.053 362.871L4.61426 319.867Z" stroke="white" stroke-width="8" stroke-linecap="round" stroke-linejoin="round"/>
<path d="M4.61426 204.839L105.053 247.875L205.493 204.839M105.053 48.012L205.461 91.08L305.9 48.0437" stroke="white" stroke-width="8" stroke-linecap="round" stroke-linejoin="round"/>
<path d="M205.461 204.839L305.9 247.875L406.339 204.839" stroke="white" stroke-width="8" stroke-linecap="round" stroke-linejoin="round"/>
<path d="M105.053 247.939V362.903M305.963 247.939V362.903M205.461 91.08V206.013M105.117 161.961V47.1557L205.524 4.11945L305.963 47.1557V161.961L205.524 204.998L105.117 161.961ZM205.461 319.867V205.061L305.9 162.025L406.339 205.093V319.867L305.9 362.871L205.461 319.867Z" stroke="white" stroke-width="8" stroke-linecap="round" stroke-linejoin="round"/>
</svg>
